<svg width="579" height="170" viewBox="0 0 579 170" fill="none" xmlns="http://www.w3.org/2000/svg">
<g opacity="0.8" clip-path="url(#clip0_153_4)">
<path d="M206.865 153.219C218.846 164.377 235.176 170 256.032 170C275.557 170 291.354 165.242 303.336 155.814C315.317 146.386 321.263 134.016 321.263 118.706H279.817L279.639 120.436C279.373 123.118 277.598 127.01 274.492 130.47C271.386 134.016 264.818 136.957 256.032 136.957C239.169 136.957 230.738 126.75 230.738 106.25C230.738 85.836 239.169 75.6294 256.032 75.6294C264.818 75.6294 271.386 78.7434 274.492 81.8574C276.001 83.501 277.243 85.3169 278.13 87.4796C279.906 91.718 279.817 92.9293 279.817 93.8807H321.263C321.263 78.5704 315.317 66.1142 303.336 56.6859C291.354 47.2575 275.557 42.5 256.032 42.5C235.176 42.5 218.846 48.0359 206.865 59.1944C194.883 70.3527 188.937 86.0959 188.937 106.25C188.937 126.404 194.883 142.061 206.865 153.219Z" fill="url(#paint0_linear_153_4)"/>
<path d="M370.877 44.23L320.379 168.27H362.18L368.482 151.403H423.772L430.163 168.27H471.964L421.377 44.23H370.877ZM379.043 123.118L394.663 81.6844H397.591L413.212 123.118H379.043Z" fill="url(#paint1_linear_153_4)"/>
<path d="M497.794 76.1485V168.27H537.731V76.1485H579V44.23H456.525V76.1485H497.794Z" fill="url(#paint2_linear_153_4)"/>
<path d="M206.865 153.219C218.846 164.377 235.176 170 256.032 170C275.557 170 291.354 165.242 303.336 155.814C315.317 146.386 321.263 134.016 321.263 118.706H279.817L279.639 120.436C279.373 123.118 277.598 127.01 274.492 130.47C271.386 134.016 264.818 136.957 256.032 136.957C239.169 136.957 230.738 126.75 230.738 106.25C230.738 85.836 239.169 75.6294 256.032 75.6294C264.818 75.6294 271.386 78.7434 274.492 81.8574C276.001 83.501 277.243 85.3169 278.13 87.4796C279.906 91.718 279.817 92.9293 279.817 93.8807H321.263C321.263 78.5704 315.317 66.1142 303.336 56.6859C291.354 47.2575 275.557 42.5 256.032 42.5C235.176 42.5 218.846 48.0359 206.865 59.1944C194.883 70.3527 188.937 86.0959 188.937 106.25C188.937 126.404 194.883 142.061 206.865 153.219Z" fill="url(#paint3_linear_153_4)"/>
<path d="M370.877 44.23L320.379 168.27H362.18L368.482 151.403H423.772L430.163 168.27H471.964L421.377 44.23H370.877ZM379.043 123.118L394.663 81.6844H397.591L413.212 123.118H379.043Z" fill="url(#paint4_linear_153_4)"/>
<path d="M497.794 76.1485V168.27H537.731V76.1485H579V44.23H456.525V76.1485H497.794Z" fill="url(#paint5_linear_153_4)"/>
<path d="M39.2506 53.3533C41.957 68.3496 35.5024 82.0734 24.834 84.0066C14.1655 85.9391 3.32304 75.3487 0.616642 60.3524C-2.08976 45.3559 4.36478 31.632 15.0333 29.6993C25.7017 27.7665 36.5442 38.3568 39.2506 53.3533Z" fill="url(#paint6_linear_153_4)"/>
<path d="M137.497 53.3533C134.791 68.3496 141.245 82.0734 151.913 84.0066C162.582 85.9391 173.425 75.3487 176.131 60.3524C178.837 45.3559 172.383 31.632 161.714 29.6993C151.046 27.7665 140.204 38.3568 137.497 53.3533Z" fill="url(#paint7_linear_153_4)"/>
<path d="M83.5979 27.0184C86.1126 43.5577 79.0884 58.349 67.9076 60.0555C56.7275 61.7622 45.6253 49.7378 43.1104 33.1985C40.5955 16.6592 47.6202 1.86794 58.8005 0.161364C69.981 -1.54522 81.0832 10.4791 83.5979 27.0184Z" fill="url(#paint8_linear_153_4)"/>
<path d="M94.0215 27.0184C91.5068 43.5577 98.5316 58.349 109.712 60.0555C120.892 61.7622 131.994 49.7378 134.509 33.1985C137.024 16.6592 129.999 1.86794 118.819 0.161364C107.639 -1.54522 96.5368 10.4791 94.0215 27.0184Z" fill="url(#paint9_linear_153_4)"/>
<path d="M66.5754 81.2158C63.024 91.1827 60.0308 105.503 59.2252 116.295C58.3324 128.255 58.9164 131.942 59.1496 133.415C59.2131 133.816 59.2506 134.052 59.2254 134.247C64.9505 132.375 76.9517 128.608 79.1586 128.513C78.6113 132.646 78.3388 143.516 81.6257 153.939C83.9149 161.199 86.4692 166.66 88.3178 170H51.8815C31.216 170 14.4634 153.215 14.4634 132.51C14.4634 119.011 21.7067 106.554 33.4273 99.8964L63.4403 82.8478C64.4703 82.2631 65.5155 81.7191 66.5754 81.2158Z" fill="url(#paint10_linear_153_4)"/>
<path d="M108.155 81.3057C97.231 89.9156 85.9003 106.465 87.5794 105.836C89.3262 105.181 102.37 105.208 108.673 105.304C107.143 106.827 102.398 114.114 95.6549 131.077C89.7613 145.905 89.2719 161.634 89.9155 170H122.66C143.326 170 160.078 153.215 160.078 132.51C160.078 119.011 152.835 106.554 141.114 99.8964L111.101 82.8478C110.133 82.2977 109.15 81.7841 108.155 81.3057Z" fill="url(#paint11_linear_153_4)"/>
</g>
<defs>
<linearGradient id="paint0_linear_153_4" x1="188.937" y1="105.422" x2="579" y2="105.422" gradientUnits="userSpaceOnUse">
<stop stop-color="#B06AE9"/>
<stop offset="0.557292" stop-color="#FF5E6D"/>
<stop offset="1" stop-color="#FFA54C"/>
</linearGradient>
<linearGradient id="paint1_linear_153_4" x1="188.937" y1="105.422" x2="579" y2="105.422" gradientUnits="userSpaceOnUse">
<stop stop-color="#B06AE9"/>
<stop offset="0.557292" stop-color="#FF5E6D"/>
<stop offset="1" stop-color="#FFA54C"/>
</linearGradient>
<linearGradient id="paint2_linear_153_4" x1="188.937" y1="105.422" x2="579" y2="105.422" gradientUnits="userSpaceOnUse">
<stop stop-color="#B06AE9"/>
<stop offset="0.557292" stop-color="#FF5E6D"/>
<stop offset="1" stop-color="#FFA54C"/>
</linearGradient>
<linearGradient id="paint3_linear_153_4" x1="188.937" y1="105.422" x2="579" y2="105.422" gradientUnits="userSpaceOnUse">
<stop stop-color="#B06AE9"/>
<stop offset="0.557292" stop-color="#FF5E6D"/>
<stop offset="1" stop-color="#FFA54C"/>
</linearGradient>
<linearGradient id="paint4_linear_153_4" x1="188.937" y1="105.422" x2="579" y2="105.422" gradientUnits="userSpaceOnUse">
<stop stop-color="#B06AE9"/>
<stop offset="0.557292" stop-color="#FF5E6D"/>
<stop offset="1" stop-color="#FFA54C"/>
</linearGradient>
<linearGradient id="paint5_linear_153_4" x1="188.937" y1="105.422" x2="579" y2="105.422" gradientUnits="userSpaceOnUse">
<stop stop-color="#B06AE9"/>
<stop offset="0.557292" stop-color="#FF5E6D"/>
<stop offset="1" stop-color="#FFA54C"/>
</linearGradient>
<linearGradient id="paint6_linear_153_4" x1="-4.21357e-08" y1="83.8961" x2="176.747" y2="83.8961" gradientUnits="userSpaceOnUse">
<stop stop-color="#B06AE9"/>
<stop offset="0.557292" stop-color="#FF5E6D"/>
<stop offset="1" stop-color="#FFA54C"/>
</linearGradient>
<linearGradient id="paint7_linear_153_4" x1="0.000251429" y1="83.8961" x2="176.748" y2="83.8961" gradientUnits="userSpaceOnUse">
<stop stop-color="#B06AE9"/>
<stop offset="0.557292" stop-color="#FF5E6D"/>
<stop offset="1" stop-color="#FFA54C"/>
</linearGradient>
<linearGradient id="paint8_linear_153_4" x1="2.30083e-05" y1="83.8962" x2="176.747" y2="83.8962" gradientUnits="userSpaceOnUse">
<stop stop-color="#B06AE9"/>
<stop offset="0.557292" stop-color="#FF5E6D"/>
<stop offset="1" stop-color="#FFA54C"/>
</linearGradient>
<linearGradient id="paint9_linear_153_4" x1="-0.00020889" y1="83.8962" x2="176.747" y2="83.8962" gradientUnits="userSpaceOnUse">
<stop stop-color="#B06AE9"/>
<stop offset="0.557292" stop-color="#FF5E6D"/>
<stop offset="1" stop-color="#FFA54C"/>
</linearGradient>
<linearGradient id="paint10_linear_153_4" x1="0.00014091" y1="83.8964" x2="176.748" y2="83.8964" gradientUnits="userSpaceOnUse">
<stop stop-color="#B06AE9"/>
<stop offset="0.557292" stop-color="#FF5E6D"/>
<stop offset="1" stop-color="#FFA54C"/>
</linearGradient>
<linearGradient id="paint11_linear_153_4" x1="-0.000107724" y1="83.8963" x2="176.747" y2="83.8963" gradientUnits="userSpaceOnUse">
<stop stop-color="#B06AE9"/>
<stop offset="0.557292" stop-color="#FF5E6D"/>
<stop offset="1" stop-color="#FFA54C"/>
</linearGradient>
<clipPath id="clip0_153_4">
<rect width="579" height="170" fill="white"/>
</clipPath>
</defs>
</svg>
