<svg width="198" height="153" viewBox="0 0 198 153" fill="none" xmlns="http://www.w3.org/2000/svg">
<path d="M167.428 12.8137C154.634 6.82762 140.954 2.47718 126.651 0C124.895 3.17566 122.843 7.44699 121.428 10.8448C106.224 8.55837 91.1604 8.55837 76.2364 10.8448C74.8218 7.44699 72.7231 3.17566 70.9509 0C56.6332 2.47718 42.9374 6.84361 30.1431 12.8454C4.33711 51.8417 -2.65848 89.8694 0.839324 127.357C17.9552 140.139 34.5426 147.903 50.8501 152.984C54.8765 147.443 58.4675 141.552 61.5611 135.344C55.6692 133.105 50.0262 130.342 44.6941 127.135C46.1087 126.087 47.4924 124.991 48.8292 123.864C81.3509 139.075 116.687 139.075 148.82 123.864C150.172 124.991 151.556 126.087 152.955 127.135C147.607 130.358 141.948 133.121 136.057 135.36C139.15 141.552 142.726 147.459 146.768 153C163.091 147.919 179.694 140.155 196.809 127.357C200.914 83.8993 189.798 46.2208 167.428 12.8137ZM65.9917 104.303C56.229 104.303 48.2228 95.1885 48.2228 84.0898C48.2228 72.9911 56.058 63.8613 65.9917 63.8613C75.9256 63.8613 83.9315 72.9751 83.7606 84.0898C83.776 95.1885 75.9256 104.303 65.9917 104.303ZM131.657 104.303C121.894 104.303 113.888 95.1885 113.888 84.0898C113.888 72.9911 121.723 63.8613 131.657 63.8613C141.591 63.8613 149.597 72.9751 149.426 84.0898C149.426 95.1885 141.591 104.303 131.657 104.303Z" fill="#FBFBFB"/>
</svg>
