<svg width="118" height="34" viewBox="0 0 118 34" fill="none" xmlns="http://www.w3.org/2000/svg">
<path d="M0 10.2V20.4H7.28571C14.5714 20.4 14.5714 20.4 14.5714 18.7002C14.5714 17.136 14.3633 17.0682 9.2284 16.8642L3.81616 16.6602V14.28V11.8999L7.84047 11.6959C11.5182 11.4919 11.7956 11.3562 11.7956 9.85986C11.7956 8.22796 11.5874 8.15998 7.63231 8.15998H3.46904V5.77997V3.39996H9.02024C14.5017 3.39996 14.5714 3.39996 14.5714 1.69998V0H7.28571H0V10.2Z" fill="white"/>
<path d="M19.4282 10.2V20.4H24.9275C32.9692 20.4 33.0282 20.3322 33.0282 10.2679C33.0282 9.72745e-07 33.0282 0 25.1639 0H19.4282V10.2ZM29.3624 4.21596C29.7761 4.69199 30.0719 7.07195 30.0719 10.2C30.0719 13.3278 29.7761 15.708 29.3624 16.1838C28.9481 16.6602 27.3516 16.9998 25.8145 16.9998H22.9761V10.2V3.39996H25.8145C27.3516 3.39996 28.9481 3.73997 29.3624 4.21596Z" fill="white"/>
<path d="M37.8862 9.51992C37.8862 20.6712 37.6835 20.3994 45.6569 20.3994C53.6308 20.3994 53.4281 20.6712 53.4281 9.51992V0H51.4009H49.4412L49.2384 8.29571L49.0357 16.6597H45.6569H42.2786L42.0759 8.29571L41.8732 0H39.9134H37.8862V9.51992Z" fill="white"/>
<path d="M58.2861 10.2V20.4H59.9759C61.5977 20.4 61.6651 20.196 61.6651 16.32V12.24H65.7198H69.7744V16.32V20.4H71.8017H73.829V10.2V0H71.8017H69.7744V4.07999V8.15998H65.7198H61.6651V4.07999C61.6651 0.204 61.5977 0 59.9759 0H58.2861V10.2Z" fill="white"/>
<path d="M81.5996 8.83996C81.5996 20.196 81.7293 20.4 89.6304 20.4C97.0133 20.4 97.1425 20.196 97.1425 8.70394V0H95.1996H93.3218L93.1275 8.29595L92.9333 16.6602H89.371H85.8093L85.615 8.29595L85.4207 0H83.5425H81.5996V8.83996Z" fill="white"/>
<path d="M101.029 10.2V20.4H107.922C116.897 20.4 117.543 20.0598 117.543 15.096C117.543 12.9198 117.184 10.812 116.754 10.404C116.179 9.85986 116.179 9.5202 116.754 9.24786C117.184 8.97603 117.543 7.00396 117.543 4.75997C117.543 1.83599 117.256 0.747962 116.394 0.407997C115.748 0.203997 112.086 0 108.137 0H101.029V10.2ZM113.594 5.77997C113.594 7.81996 113.522 7.81996 109.501 8.02396L105.337 8.22796V5.77997V3.33198L109.501 3.53597C113.522 3.73997 113.594 3.73997 113.594 5.77997ZM113.594 14.28V16.6602L109.501 16.8642L105.337 17.0682V14.28V11.4919L109.501 11.6959L113.594 11.8999V14.28Z" fill="white"/>
<path d="M12.372 24.8326C9.57581 25.9475 8.76817 30.7168 11.0052 32.9466C12.372 34.309 15.9139 34.3713 16.4112 33.0083C16.5976 32.4509 16.2248 32.3273 15.1063 32.5749C13.1802 33.0706 11.5644 31.5218 11.5644 29.2303C11.5644 27.0624 12.6209 26.0715 14.7955 26.0715C16.6596 26.0715 17.1569 25.2042 15.5411 24.585C14.3606 24.1516 14.1122 24.1516 12.372 24.8326Z" fill="white"/>
<path d="M21.4599 24.8833C20.5854 25.3851 19.9294 26.514 19.6015 28.0191C18.8905 31.155 20.4214 33.7259 23.2093 33.9771C25.6692 34.2278 27.1997 32.4089 27.1997 29.0224C27.1997 25.2596 24.3572 23.19 21.4599 24.8833ZM25.3957 27.5803C25.9422 28.8973 25.8877 29.5243 25.2317 30.8413C24.1933 32.9734 22.5533 32.9734 21.5144 30.8413C20.3665 28.5835 21.4054 25.9496 23.3733 25.9496C24.3572 25.9496 24.9583 26.4514 25.3957 27.5803Z" fill="white"/>
<path d="M32.0571 29.1429C32.0571 33.0286 32.2286 34 32.9143 34C33.6 34 33.7715 33.1583 33.8285 30.244L33.8855 26.5525L35.0285 30.244C35.6572 32.3165 36.457 34 36.8573 34C37.2571 34 38.1143 32.1868 38.743 29.92L39.9431 25.9051L40.0001 29.92C40.0571 33.0937 40.2285 34 40.9142 34C41.6 34 41.7714 33.0286 41.7714 29.1429C41.7714 24.48 41.7144 24.2857 40.4574 24.2857C39.3713 24.2857 38.9715 24.8686 38.1143 27.8479C37.6 29.7908 37.0287 31.4097 36.9143 31.4097C36.7998 31.4097 36.2285 29.7908 35.7142 27.8479C34.8571 24.8686 34.4572 24.2857 33.3712 24.2857C32.1141 24.2857 32.0571 24.48 32.0571 29.1429Z" fill="white"/>
<path d="M45.6572 29.1429C45.6572 33.0286 45.8629 34 46.6858 34C47.5087 34 47.7144 33.1583 47.7828 30.244L47.8512 26.5525L49.2229 30.244C49.9774 32.3165 50.937 34 51.4174 34C51.8972 34 52.9258 32.1868 53.6803 29.92L55.1204 25.9051L55.1888 29.92C55.2572 33.0937 55.4629 34 56.2858 34C57.1086 34 57.3144 33.0286 57.3144 29.1429C57.3144 24.48 57.246 24.2857 55.7375 24.2857C54.4343 24.2857 53.9544 24.8686 52.9258 27.8479C52.3087 29.7908 51.6231 31.4097 51.4858 31.4097C51.3485 31.4097 50.6629 29.7908 50.0458 27.8479C49.0172 24.8686 48.5373 24.2857 47.2341 24.2857C45.7256 24.2857 45.6572 24.48 45.6572 29.1429Z" fill="white"/>
<path d="M59.2568 27.8479C59.2568 31.8629 60.7363 34 63.628 34C66.5203 34 67.9997 31.8629 67.9997 27.8479C67.9997 25.1279 67.7979 24.2857 66.9909 24.2857C66.2509 24.2857 65.9821 25.1279 65.9821 27.7829C65.9821 31.6686 64.7044 33.4822 62.7539 32.2514C61.9468 31.7983 61.5433 30.5029 61.4086 27.9125C61.2745 25.2571 60.938 24.2857 60.2656 24.2857C59.5257 24.2857 59.2568 25.1925 59.2568 27.8479Z" fill="white"/>
<path d="M70.9146 29.1429C70.9146 32.964 71.0811 34 71.7472 34C72.3026 34 72.5798 33.0286 72.691 30.3737L72.8575 26.7468L74.5228 30.244C75.6885 32.5108 76.6323 33.7411 77.4649 33.8708C78.6306 34.0651 78.686 33.8708 78.686 29.2079C78.686 25.2571 78.5195 24.2857 77.8533 24.2857C77.1872 24.2857 77.0207 25.1279 77.0207 27.9771L76.9653 31.7337L75.1889 28.0422C73.8567 25.1925 73.0794 24.2857 72.1914 24.2857C70.9703 24.2857 70.9146 24.5451 70.9146 29.1429Z" fill="white"/>
<path d="M82.5713 29.1429C82.5713 33.0286 82.6684 34 83.057 34C83.4456 34 83.5427 33.0286 83.5427 29.1429C83.5427 25.2571 83.4456 24.2857 83.057 24.2857C82.6684 24.2857 82.5713 25.2571 82.5713 29.1429Z" fill="white"/>
<path d="M86.4565 24.9337C86.4565 25.2571 86.9665 25.5811 87.59 25.5811C88.61 25.5811 88.7235 26.0343 88.7235 29.7908C88.7235 33.0937 88.8935 34 89.5735 34C90.2535 34 90.4235 33.0937 90.4235 29.7908C90.4235 25.7108 90.48 25.5811 91.84 25.5811C92.6335 25.5811 93.2565 25.2571 93.2565 24.9337C93.2565 24.5451 91.7265 24.2857 89.8565 24.2857C87.9865 24.2857 86.4565 24.5451 86.4565 24.9337Z" fill="white"/>
<path d="M97.4187 27.1354C98.3801 28.7543 99.2044 30.8914 99.2044 31.9925C99.2044 33.3525 99.548 34 100.235 34C100.922 34 101.265 33.3525 101.265 32.0571C101.265 30.9565 101.883 28.9486 102.639 27.524C104.288 24.5451 104.288 24.2857 103.12 24.2857C102.639 24.2857 101.746 25.2571 101.128 26.3583L100.098 28.4954L98.9298 26.3583C98.3115 25.2571 97.2812 24.2857 96.7315 24.2857C95.8387 24.2857 95.9762 24.804 97.4187 27.1354Z" fill="white"/>
</svg>
