<svg width="138" height="64" viewBox="0 0 138 64" fill="none" xmlns="http://www.w3.org/2000/svg">
<path d="M28.6893 0.724699C26.8156 1.82443 26.4749 2.70422 28.0079 2.70422C29.1151 2.70422 30.6481 1.32955 30.6481 0.33979C30.6481 -0.210078 30.1797 -0.100104 28.6893 0.724699Z" fill="#0148A3"/>
<path d="M32.833 0.338116C32.2588 0.686983 32.3494 2.33164 32.9841 2.58082C33.7698 2.92969 34.2535 2.53099 34.2535 1.48439C34.2535 0.786656 33.5583 -0.210102 33.2561 0.0390881C33.2259 0.0390881 33.0143 0.188602 32.833 0.338116Z" fill="#0148A3"/>
<path d="M23.7966 0.722049C22.2752 1.43723 21.0582 2.75757 21.9202 2.70256C22.1231 2.64754 23.3402 2.04239 24.6079 1.32721C27.042 -0.103163 26.4335 -0.488261 23.7966 0.722049Z" fill="#0148A3"/>
<path d="M36.0562 0.477496C36.0562 1.23784 38.3977 2.70422 39.5969 2.70422C41.0244 2.70422 40.8531 1.88957 39.1969 0.857672C37.655 -0.119915 36.0562 -0.282847 36.0562 0.477496Z" fill="#0148A3"/>
<path d="M40.7552 0.943575C41.3673 1.46254 42.4163 2.12305 43.1595 2.40612C44.3396 2.83073 44.3832 2.83073 43.8151 2.2174C43.4653 1.83998 42.3727 1.17947 41.4109 0.75486L39.6626 0L40.7552 0.943575Z" fill="#0148A3"/>
<path d="M16.1851 4.94325C14.0943 6.24988 13.1186 7.46313 13.6762 8.0231C14.2337 8.62976 17.8113 6.01654 18.6941 4.33663C19.3446 3.21668 18.6941 3.35667 16.1851 4.94325Z" fill="#0148A3"/>
<path d="M20.3435 4.92275C18.4584 6.66725 18.4584 8.11266 20.3435 8.11266C21.8247 8.11266 24.3381 5.81991 24.3381 4.42433C24.3381 3.12841 21.9144 3.42747 20.3435 4.92275Z" fill="#0148A3"/>
<path d="M27.7724 4.57956C26.5591 5.9367 26.913 7.84677 28.4296 8.04781C31.3113 8.44994 33.0301 6.94201 32.2718 4.62985C31.8168 3.27271 28.9857 3.27271 27.7724 4.57956Z" fill="#0148A3"/>
<path d="M34.8147 4.13636C33.8746 5.01035 34.1221 6.2063 35.5069 7.21829C37.6835 8.78224 39.6619 8.23026 39.6619 6.0683C39.6619 4.18238 36.2489 2.8024 34.8147 4.13636Z" fill="#0148A3"/>
<path d="M41.5415 4.19884C40.8917 6.00095 44.5131 9.6581 46.1845 8.91606C47.2988 8.43904 47.0665 7.485 45.4414 5.68293C43.4914 3.61584 41.913 3.0328 41.5415 4.19884Z" fill="#0148A3"/>
<path d="M47.7749 4.86691C47.7749 5.58645 50.0899 7.87214 51.4253 8.5494C54.185 9.90386 53.562 8.08379 50.4905 5.84042C48.5762 4.44361 47.7749 4.18964 47.7749 4.86691Z" fill="#0148A3"/>
<path d="M11.6723 6.59715C9.41221 8.46006 9.41221 8.50549 11.2203 7.2787C13.1288 6.00649 14.8365 4.50708 14.3342 4.50708C14.2338 4.50708 13.0284 5.46125 11.6723 6.59715Z" fill="#0148A3"/>
<path d="M52.2816 6.36829C52.7774 6.91079 53.9943 7.91236 54.9858 8.62181L56.7888 9.91549L55.4367 8.53834C54.7154 7.78716 53.4985 6.7856 52.7325 6.28482L51.3804 5.40845L52.2816 6.36829Z" fill="#0148A3"/>
<path d="M13.3187 11.4963C12.1752 12.7151 11.7178 13.6414 11.7178 14.714C11.7178 16.0791 11.855 16.2253 13.1357 16.2253C15.194 16.2253 17.2981 13.8364 17.1151 11.74C16.9321 9.39986 15.377 9.30238 13.3187 11.4963Z" fill="#0148A3"/>
<path d="M20.9538 11.1352C19.7334 12.39 19.4622 14.6583 20.3662 15.6235C21.3606 16.6853 23.4398 16.2992 24.8409 14.8031C26.1969 13.307 26.5585 11.5213 25.6093 10.5078C24.6601 9.49426 22.129 9.83208 20.9538 11.1352Z" fill="#0148A3"/>
<path d="M30.7435 10.6429C29.4925 11.5753 29.4031 14.2743 30.5648 15.4029C31.6819 16.5316 34.3629 16.4826 35.2564 15.3539C37.7587 12.3114 33.8713 8.23837 30.7435 10.6429Z" fill="#0148A3"/>
<path d="M41.2953 10.2759C40.8077 10.5533 40.564 11.2932 40.564 12.3566C40.564 15.5933 44.2205 17.5815 45.6422 15.1309C47.0643 12.6341 43.5702 8.70384 41.2953 10.2759Z" fill="#0148A3"/>
<path d="M8.99021 11.4148C7.64183 12.2099 4.99697 15.7252 5.46371 16.1437C6.2935 16.7715 9.97554 13.6328 10.7016 11.7077C11.0646 10.6197 10.5979 10.5359 8.99021 11.4148Z" fill="#0148A3"/>
<path d="M48.9981 11.0052C48.8141 11.1229 48.6763 11.8294 48.6763 12.5359C48.6763 14.1451 50.8358 16.2253 52.5357 16.2253C54.0519 16.2253 54.4654 15.4011 53.7304 13.9096C52.8576 12.0257 49.871 10.2202 48.9981 11.0052Z" fill="#0148A3"/>
<path d="M56.0941 12.7644C57.0556 15.0741 59.5907 17.6579 60.2903 17.0315C60.7709 16.6401 59.5035 14.252 58.1483 12.9993C56.4 11.3942 55.4384 11.2767 56.0941 12.7644Z" fill="#0148A3"/>
<path d="M15.0481 17.706C12.7289 18.9409 11.8109 22.2341 13.4537 23.6062C14.7582 24.7039 16.6425 24.5667 18.3336 23.1946C19.5415 22.2798 19.8314 21.6394 19.8314 20.3131C19.8314 17.4773 17.7055 16.3339 15.0481 17.706Z" fill="#0148A3"/>
<path d="M25.3387 18.2381C24.0803 19.6307 24.0017 22.1014 25.1421 23.4041C27.0298 25.5603 30.6477 23.7185 30.6477 20.5741C30.6477 17.4296 27.3051 15.9472 25.3387 18.2381Z" fill="#0148A3"/>
<path d="M6.81899 18.2833C5.04209 20.3166 4.91517 24.338 6.60744 24.338C7.62281 24.338 9.39971 22.0336 9.78048 20.2714C10.4151 17.1988 8.72281 16.0692 6.81899 18.2833Z" fill="#0148A3"/>
<path d="M47.2541 18.2348C45.9907 18.7684 45.5552 20.9028 46.4265 22.5481C47.7335 25.1716 49.9552 26.0165 51.4797 24.4602C53.876 22.0145 50.4342 16.9452 47.2541 18.2348Z" fill="#0148A3"/>
<path d="M2.4329 19.8837C1.83294 20.8556 1.23298 22.5786 1.09453 23.6389C0.771469 25.3619 0.817622 25.4945 1.50988 24.9643C2.57135 24.1249 3.77127 20.8114 3.58665 19.3093L3.4482 18.0281L2.4329 19.8837Z" fill="#0148A3"/>
<path d="M19.8571 26.2705C17.1342 27.2857 16.1968 31.3001 18.2055 33.2381C19.6339 34.6223 22.0889 34.5762 23.3388 33.1919C24.6333 31.7615 24.6779 28.6238 23.4281 27.3318C22.9371 26.8242 22.3568 26.409 22.1336 26.409C21.9104 26.409 21.464 26.3167 21.1069 26.2244C20.7945 26.086 20.2142 26.1321 19.8571 26.2705Z" fill="#0148A3"/>
<path d="M9.07622 27.936C7.89562 29.3467 7.76913 32.4866 8.86539 33.9428C10.0038 35.5354 11.1001 35.5354 12.4493 34.0793C13.7142 32.7596 13.8828 29.6652 12.8287 28.027C12.0276 26.7528 10.1303 26.7073 9.07622 27.936Z" fill="#0148A3"/>
<path d="M29.9265 27.9911C28.7709 29.0216 28.4819 31.4536 29.3487 32.8139C30.0228 33.8856 32.7676 34.5864 34.3083 34.0918C37.1495 33.1437 37.9198 29.3926 35.5605 27.7438C34.0678 26.7132 31.1785 26.8369 29.9265 27.9911Z" fill="#0148A3"/>
<path d="M2.25641 28.1972C1.59676 29.8615 1.67437 33.46 2.37282 34.5397C2.95486 35.3942 2.95486 35.3942 3.7309 34.3147C4.27414 33.5949 4.50696 32.6053 4.50696 31.031C4.50696 27.3875 3.18767 25.7682 2.25641 28.1972Z" fill="#0148A3"/>
<path d="M45.0698 34.7042V41.4648H50.0276C54.9853 41.4648 54.9853 41.4648 54.9853 40.3381C54.9853 39.3014 54.8437 39.2564 51.3495 39.1212L47.6666 38.986V37.4084V35.8309L50.4051 35.6956C52.9077 35.5604 53.0964 35.4705 53.0964 34.4787C53.0964 33.3971 52.9548 33.3521 50.2634 33.3521H47.4304V31.7746V30.1971H51.2079C54.9379 30.1971 54.9853 30.1971 54.9853 29.0704V27.9436H50.0276H45.0698V34.7042Z" fill="#0148A3"/>
<path d="M60.3945 34.7042V41.4648H64.4039C70.267 41.4648 70.31 41.4198 70.31 34.7492C70.31 27.9436 70.31 27.9436 64.5763 27.9436H60.3945V34.7042ZM67.6373 30.738C67.939 31.0535 68.1546 32.6309 68.1546 34.7042C68.1546 36.7773 67.939 38.3549 67.6373 38.6703C67.3353 38.986 66.1713 39.2111 65.0506 39.2111H62.9812V34.7042V30.1971H65.0506C66.1713 30.1971 67.3353 30.4225 67.6373 30.738Z" fill="#0148A3"/>
<path d="M76.6195 34.2534C76.6195 41.6445 76.4784 41.4644 82.0274 41.4644C87.5768 41.4644 87.4357 41.6445 87.4357 34.2534V27.9436H86.0249H84.661L84.5199 33.442L84.3789 38.9857H82.0274H79.6763L79.5352 33.442L79.3942 27.9436H78.0303H76.6195V34.2534Z" fill="#0148A3"/>
<path d="M93.7461 34.7042V41.4648H94.9221C96.0508 41.4648 96.0977 41.3295 96.0977 38.7605V36.0563H98.9195H101.741V38.7605V41.4648H103.152H104.563V34.7042V27.9436H103.152H101.741V30.6479V33.3521H98.9195H96.0977V30.6479C96.0977 28.0788 96.0508 27.9436 94.9221 27.9436H93.7461V34.7042Z" fill="#0148A3"/>
<path d="M109.972 33.8028C109.972 41.3295 110.062 41.4648 115.561 41.4648C120.699 41.4648 120.789 41.3295 120.789 33.7126V27.9436H119.436H118.13L117.994 33.4422L117.859 38.986H115.38H112.901L112.766 33.4422L112.631 27.9436H111.324H109.972V33.8028Z" fill="#0148A3"/>
<path d="M126.198 34.7042V41.4648H130.713C136.591 41.4648 137.015 41.2393 137.015 37.9493C137.015 36.5069 136.78 35.1098 136.498 34.8394C136.121 34.4787 136.121 34.2536 136.498 34.0731C136.78 33.8929 137.015 32.5859 137.015 31.0985C137.015 29.1605 136.827 28.4394 136.262 28.2141C135.839 28.0788 133.44 27.9436 130.854 27.9436H126.198V34.7042ZM134.428 31.7746C134.428 33.1267 134.381 33.1267 131.747 33.2619L129.02 33.3971V31.7746V30.1521L131.747 30.2873C134.381 30.4225 134.428 30.4225 134.428 31.7746ZM134.428 37.4084V38.986L131.747 39.1212L129.02 39.2564V37.4084V35.5604L131.747 35.6956L134.428 35.8309V37.4084Z" fill="#0148A3"/>
<path d="M14.5508 37.0847C12.0094 37.8718 11.9605 41.8952 14.5019 43.6443C15.5282 44.3439 17.5809 44.3439 18.6072 43.6443C19.0959 43.3819 19.5846 42.4199 19.7312 41.5452C19.9756 40.1897 19.829 39.7521 18.656 38.6154C17.1899 37.2159 15.7726 36.6911 14.5508 37.0847Z" fill="#0148A3"/>
<path d="M25.4012 37.4976C23.0729 38.4813 22.7654 40.9616 24.7423 42.929C26.807 44.8961 29.5307 44.4686 30.4093 42.0309C31.0683 40.2774 30.3215 38.353 28.696 37.5406C27.2024 36.7708 27.1145 36.7708 25.4012 37.4976Z" fill="#0148A3"/>
<path d="M5.92183 38.335C4.61233 39.5846 6.01215 44.2808 7.86356 44.97C10.0762 45.7889 10.7084 41.3942 8.72151 39.1535C7.45715 37.7317 6.77982 37.5165 5.92183 38.335Z" fill="#0148A3"/>
<path d="M1.01256 39.6986C1.23622 41.9334 2.53343 45.0704 3.20438 45.0704C4.32269 45.0704 2.89127 39.2261 1.5046 38.1086C0.878365 37.593 0.788902 37.7648 1.01256 39.6986Z" fill="#0148A3"/>
<path d="M47.7327 46.327C45.8794 47.0512 45.3441 50.1491 46.8267 51.5974C47.7327 52.4824 50.0803 52.5228 50.4099 51.6375C50.5334 51.2754 50.2863 51.1952 49.545 51.356C48.2683 51.678 47.1974 50.672 47.1974 49.1835C47.1974 47.7754 47.8977 47.1318 49.3389 47.1318C50.5745 47.1318 50.9041 46.5684 49.8332 46.1662C49.0507 45.8847 48.8861 45.8847 47.7327 46.327Z" fill="#0148A3"/>
<path d="M56.6354 46.3599C55.9254 46.6859 55.3928 47.4192 55.1265 48.3968C54.5493 50.4337 55.7922 52.1036 58.0558 52.2668C60.0531 52.4296 61.2957 51.2482 61.2957 49.0485C61.2957 46.6044 58.9879 45.2601 56.6354 46.3599ZM59.831 48.1118C60.2748 48.9672 60.2305 49.3745 59.6979 50.2299C58.8547 51.6148 57.5232 51.6148 56.6797 50.2299C55.7476 48.7634 56.5911 47.0525 58.189 47.0525C58.9879 47.0525 59.4759 47.3785 59.831 48.1118Z" fill="#0148A3"/>
<path d="M65.8027 49.1267C65.8027 51.6507 65.93 52.2817 66.439 52.2817C66.9481 52.2817 67.0753 51.7349 67.1177 49.842L67.16 47.4442L68.0085 49.842C68.4752 51.1882 69.0689 52.2817 69.3661 52.2817C69.6629 52.2817 70.2992 51.1039 70.7659 49.6315L71.6568 47.0237L71.6991 49.6315C71.7414 51.6929 71.8686 52.2817 72.3777 52.2817C72.8867 52.2817 73.014 51.6507 73.014 49.1267C73.014 46.098 72.9717 45.9718 72.0385 45.9718C71.2323 45.9718 70.9355 46.3504 70.2992 48.2856C69.9174 49.5476 69.4933 50.5991 69.4084 50.5991C69.3234 50.5991 68.8993 49.5476 68.5175 48.2856C67.8812 46.3504 67.5844 45.9718 66.7782 45.9718C65.845 45.9718 65.8027 46.098 65.8027 49.1267Z" fill="#0148A3"/>
<path d="M77.5215 49.1267C77.5215 51.6507 77.6647 52.2817 78.2373 52.2817C78.81 52.2817 78.9532 51.7349 79.0008 49.842L79.0484 47.4442L80.003 49.842C80.528 51.1882 81.1959 52.2817 81.5302 52.2817C81.8642 52.2817 82.58 51.1039 83.1051 49.6315L84.1073 47.0237L84.1549 49.6315C84.2025 51.6929 84.3456 52.2817 84.9183 52.2817C85.491 52.2817 85.6342 51.6507 85.6342 49.1267C85.6342 46.098 85.5866 45.9718 84.5368 45.9718C83.6298 45.9718 83.2958 46.3504 82.58 48.2856C82.1505 49.5476 81.6734 50.5991 81.5778 50.5991C81.4823 50.5991 81.0051 49.5476 80.5756 48.2856C79.8598 46.3504 79.5258 45.9718 78.6189 45.9718C77.5691 45.9718 77.5215 46.098 77.5215 49.1267Z" fill="#0148A3"/>
<path d="M90.1406 48.2856C90.1406 50.8935 91.2084 52.2817 93.2954 52.2817C95.3828 52.2817 96.4505 50.8935 96.4505 48.2856C96.4505 46.5189 96.3049 45.9718 95.7224 45.9718C95.1884 45.9718 94.9943 46.5189 94.9943 48.2434C94.9943 50.7673 94.0722 51.9453 92.6645 51.1459C92.082 50.8515 91.7908 50.0101 91.6936 48.3276C91.5968 46.6028 91.354 45.9718 90.8687 45.9718C90.3347 45.9718 90.1406 46.5608 90.1406 48.2856Z" fill="#0148A3"/>
<path d="M100.958 49.1267C100.958 51.6087 101.074 52.2817 101.537 52.2817C101.924 52.2817 102.117 51.6507 102.194 49.9262L102.31 47.5704L103.469 49.842C104.28 51.3144 104.937 52.1135 105.517 52.1977C106.328 52.3239 106.366 52.1977 106.366 49.169C106.366 46.6028 106.251 45.9718 105.787 45.9718C105.323 45.9718 105.208 46.5189 105.208 48.3695L105.169 50.8096L103.933 48.4118C103.006 46.5608 102.465 45.9718 101.847 45.9718C100.997 45.9718 100.958 46.1403 100.958 49.1267Z" fill="#0148A3"/>
<path d="M111.775 49.1267C111.775 51.6507 111.865 52.2817 112.226 52.2817C112.586 52.2817 112.676 51.6507 112.676 49.1267C112.676 46.6028 112.586 45.9718 112.226 45.9718C111.865 45.9718 111.775 46.6028 111.775 49.1267Z" fill="#0148A3"/>
<path d="M117.183 46.3927C117.183 46.6028 117.521 46.8132 117.934 46.8132C118.61 46.8132 118.686 47.1076 118.686 49.5476C118.686 51.6929 118.798 52.2817 119.249 52.2817C119.7 52.2817 119.812 51.6929 119.812 49.5476C119.812 46.8975 119.85 46.8132 120.751 46.8132C121.277 46.8132 121.69 46.6028 121.69 46.3927C121.69 46.1403 120.676 45.9718 119.437 45.9718C118.197 45.9718 117.183 46.1403 117.183 46.3927Z" fill="#0148A3"/>
<path d="M126.164 47.8228C126.833 48.8743 127.407 50.2625 127.407 50.9777C127.407 51.8611 127.646 52.2817 128.124 52.2817C128.602 52.2817 128.841 51.8611 128.841 51.0197C128.841 50.3048 129.271 49.0005 129.797 48.0752C130.944 46.1403 130.944 45.9718 130.132 45.9718C129.797 45.9718 129.176 46.6028 128.746 47.318L128.029 48.7062L127.216 47.318C126.785 46.6028 126.068 45.9718 125.686 45.9718C125.065 45.9718 125.16 46.3084 126.164 47.8228Z" fill="#0148A3"/>
<path d="M12.1229 47.2919C10.9811 48.4198 12.3864 51.4868 14.6701 52.84C16.9099 54.1032 17.9639 51.6674 16.3389 48.961C15.241 47.1566 13.0891 46.2996 12.1229 47.2919Z" fill="#0148A3"/>
<path d="M6.37632 47.1418C5.93073 47.8645 7.84679 51.5223 9.18359 52.5607C10.7432 53.8254 11.2779 53.1026 10.3867 50.9351C9.27272 48.2256 7.00017 46.1034 6.37632 47.1418Z" fill="#0148A3"/>
<path d="M4.53485 49.5791C5.13952 50.5646 6.1977 52.0194 6.85275 52.7234L8.11251 54.0845L7.2055 52.6765C4.53485 48.4527 2.26733 45.8245 4.53485 49.5791Z" fill="#0148A3"/>
<path d="M19.3359 54.3619C18.1703 55.4142 19.6273 57.748 22.2498 59.0295C23.8525 59.8072 24.3381 59.6243 24.3381 58.3431C24.3381 56.6041 23.464 55.4142 21.667 54.6821C19.7244 53.95 19.7244 53.95 19.3359 54.3619Z" fill="#0148A3"/>
<path d="M27.1567 54.2141C25.4535 54.7033 26.007 58.1773 27.9657 59.2048C29.4133 59.9875 30.6482 59.1068 30.6482 57.3942C30.6482 55.0948 29.0727 53.627 27.1567 54.2141Z" fill="#0148A3"/>
<path d="M12.6201 55.5193C12.6201 56.3755 13.8807 57.721 15.5015 58.6179C18.608 60.3714 18.9232 59.3518 16.0418 56.7831C14.1509 55.03 12.6201 54.459 12.6201 55.5193Z" fill="#0148A3"/>
<path d="M9.91602 55.1325C9.91602 55.7856 13.3039 59.2687 14.7831 60.1394C15.642 60.684 15.4988 60.4117 14.2105 58.7789C12.2064 56.384 9.91602 54.4246 9.91602 55.1325Z" fill="#0148A3"/>
<path d="M26.1898 60.8591C25.7874 61.5921 27.9783 63.9999 29.0514 63.9999C29.8562 63.9999 29.9009 63.8429 29.4985 62.7436C29.2302 62.0632 28.5148 61.2258 27.8889 60.9117C26.5922 60.2309 26.5475 60.2309 26.1898 60.8591Z" fill="#0148A3"/>
<path d="M31.9284 60.7337C31.4436 61.0257 31.4134 62.9238 31.898 63.7027C32.413 64.5299 33.3521 63.5078 33.3521 62.1452C33.3521 61.2692 32.716 60.1496 32.3524 60.4416C32.3222 60.4416 32.1101 60.5877 31.9284 60.7337Z" fill="#0148A3"/>
<path d="M18.0283 61.346C18.0283 61.6355 22.043 64 22.503 64C22.8794 64 19.8684 61.9251 18.7811 61.4426C18.3629 61.2979 18.0283 61.2494 18.0283 61.346Z" fill="#0148A3"/>
<path d="M21.8803 61.7797C22.7692 62.5552 24.1809 63.3863 25.0175 63.7187C26.5861 64.2173 26.5861 64.2173 24.5469 62.3337C23.3966 61.2811 21.9849 60.3943 21.4098 60.3943C20.4164 60.45 20.4686 60.5605 21.8803 61.7797Z" fill="#0148A3"/>
<path d="M36.0608 61.7264C34.9627 63.328 34.8711 63.9999 35.7407 63.9999C36.6555 63.9999 38.7604 61.9849 38.7604 61.1064C38.7604 59.9179 37.0673 60.2798 36.0608 61.7264Z" fill="#0148A3"/>
<path d="M41.4938 61.7551C40.0525 62.4888 38.5213 63.6976 38.7915 63.9566C39.0617 64.2156 41.3587 63.2658 42.5298 62.4026C43.9259 61.3233 43.2054 60.8917 41.4938 61.7551Z" fill="#0148A3"/>
</svg>
