<svg width="268" height="268" viewBox="0 0 268 268" fill="none" xmlns="http://www.w3.org/2000/svg">
<g clip-path="url(#clip0_142_2)" filter="url(#filter0_d_142_2)">
<path d="M130.07 96.7044C127.976 97.6587 127.596 98.4221 129.309 98.4221C130.546 98.4221 132.259 97.2293 132.259 96.3704C132.259 95.8933 131.736 95.9887 130.07 96.7044Z" fill="white" fill-opacity="0.29"/>
<path d="M134.305 96.3704C133.401 96.7044 133.544 98.2789 134.543 98.5175C135.78 98.8515 136.541 98.4698 136.541 97.4678C136.541 96.7998 135.447 95.8456 134.971 96.0842C134.924 96.0842 134.59 96.2273 134.305 96.3704Z" fill="white" fill-opacity="0.29"/>
<path d="M125.312 97.1815C123.884 97.8018 122.742 98.9469 123.551 98.8992C123.741 98.8515 124.883 98.3266 126.073 97.7064C128.357 96.4659 127.786 96.1319 125.312 97.1815Z" fill="white" fill-opacity="0.29"/>
<path d="M138.444 96.943C138.444 97.611 140.395 98.8992 141.394 98.8992C142.584 98.8992 142.441 98.1835 141.061 97.277C139.777 96.4182 138.444 96.275 138.444 96.943Z" fill="white" fill-opacity="0.29"/>
<path d="M143.203 97.4201C143.869 97.945 145.011 98.6129 145.82 98.8992C147.105 99.3286 147.152 99.3286 146.534 98.7083C146.153 98.3266 144.963 97.6587 143.917 97.2293L142.013 96.4659L143.203 97.4201Z" fill="white" fill-opacity="0.29"/>
<path d="M116.89 101.762C114.748 103.098 113.749 104.338 114.32 104.911C114.891 105.531 118.555 102.859 119.459 101.142C120.125 99.9966 119.459 100.14 116.89 101.762Z" fill="white" fill-opacity="0.29"/>
<path d="M121.838 101.571C119.84 103.241 119.84 104.625 121.838 104.625C123.408 104.625 126.073 102.43 126.073 101.094C126.073 99.8534 123.504 100.14 121.838 101.571Z" fill="white" fill-opacity="0.29"/>
<path d="M129.213 101.237C128.071 102.525 128.404 104.338 129.832 104.529C132.544 104.911 134.162 103.48 133.448 101.285C133.02 99.9966 130.355 99.9966 129.213 101.237Z" fill="white" fill-opacity="0.29"/>
<path d="M128.404 149.862C129.712 151.309 131.788 151.153 132.176 149.563C132.934 146.545 131.524 144.543 128.973 145.083C127.475 145.41 127.15 148.42 128.404 149.862Z" fill="white" fill-opacity="0.29"/>
<path d="M137.112 100.903C136.208 101.81 136.446 103.05 137.778 104.1C139.872 105.722 141.775 105.149 141.775 102.907C141.775 100.951 138.492 99.5195 137.112 100.903Z" fill="white" fill-opacity="0.29"/>
<path d="M144.345 101.046C143.679 102.668 147.39 105.961 149.103 105.293C150.245 104.863 150.007 104.004 148.342 102.382C146.343 100.521 144.725 99.9966 144.345 101.046Z" fill="white" fill-opacity="0.29"/>
<path d="M150.34 101.237C150.34 102.048 152.815 104.625 154.242 105.388C157.192 106.915 156.526 104.863 153.243 102.334C151.197 100.76 150.34 100.474 150.34 101.237Z" fill="white" fill-opacity="0.29"/>
<path d="M112.512 103.48C110.37 105.436 110.37 105.483 112.083 104.195C113.891 102.859 115.509 101.285 115.033 101.285C114.938 101.285 113.796 102.287 112.512 103.48Z" fill="white" fill-opacity="0.29"/>
<path d="M155.337 102.668C155.86 103.289 157.145 104.434 158.191 105.245L160.095 106.724L158.667 105.149C157.906 104.291 156.621 103.146 155.812 102.573L154.385 101.571L155.337 102.668Z" fill="white" fill-opacity="0.29"/>
<path d="M113.939 108.108C112.75 109.3 112.274 110.207 112.274 111.257C112.274 112.593 112.417 112.736 113.749 112.736C115.89 112.736 118.079 110.398 117.889 108.346C117.698 106.056 116.081 105.961 113.939 108.108Z" fill="white" fill-opacity="0.29"/>
<path d="M122.504 107.726C121.22 108.966 120.934 111.209 121.886 112.163C122.932 113.213 125.121 112.831 126.596 111.352C128.024 109.873 128.404 108.108 127.405 107.106C126.406 106.104 123.741 106.438 122.504 107.726Z" fill="white" fill-opacity="0.29"/>
<path d="M132.83 107.297C131.497 108.203 131.402 110.827 132.639 111.925C133.829 113.022 136.684 112.974 137.636 111.877C140.3 108.919 136.161 104.959 132.83 107.297Z" fill="white" fill-opacity="0.29"/>
<path d="M143.107 107.058C142.537 107.344 142.251 108.108 142.251 109.205C142.251 112.545 146.533 114.597 148.199 112.068C149.864 109.491 145.772 105.436 143.107 107.058Z" fill="white" fill-opacity="0.29"/>
<path d="M109.514 107.726C108.277 108.632 105.85 112.64 106.279 113.117C107.04 113.833 110.418 110.255 111.084 108.06C111.418 106.819 110.989 106.724 109.514 107.726Z" fill="white" fill-opacity="0.29"/>
<path d="M152.101 107.344C151.91 107.487 151.768 108.346 151.768 109.205C151.768 111.161 154.004 113.69 155.765 113.69C157.335 113.69 157.763 112.688 157.002 110.875C156.098 108.585 153.005 106.39 152.101 107.344Z" fill="white" fill-opacity="0.29"/>
<path d="M158.953 109.253C159.999 112.068 162.759 115.217 163.521 114.453C164.044 113.976 162.664 111.066 161.189 109.539C159.286 107.583 158.239 107.44 158.953 109.253Z" fill="white" fill-opacity="0.29"/>
<path d="M116.128 114.835C113.844 116.123 112.94 119.559 114.558 120.99C115.842 122.135 117.698 121.992 119.364 120.561C120.553 119.606 120.839 118.938 120.839 117.555C120.839 114.597 118.745 113.404 116.128 114.835Z" fill="white" fill-opacity="0.29"/>
<path d="M126.311 115.36C124.788 116.839 124.693 119.463 126.073 120.847C128.357 123.137 132.734 121.181 132.734 117.841C132.734 114.501 128.69 112.927 126.311 115.36Z" fill="white" fill-opacity="0.29"/>
<path d="M107.278 115.885C105.279 118.032 105.136 122.278 107.04 122.278C108.182 122.278 110.18 119.845 110.608 117.984C111.322 114.74 109.419 113.547 107.278 115.885Z" fill="white" fill-opacity="0.29"/>
<path d="M102.9 116.887C102.281 117.936 101.663 119.797 101.52 120.942C101.187 122.803 101.234 122.946 101.948 122.374C103.043 121.467 104.28 117.889 104.089 116.266L103.947 114.883L102.9 116.887Z" fill="white" fill-opacity="0.29"/>
<path d="M121.315 124.044C118.412 125.093 117.413 129.244 119.554 131.248C121.077 132.679 123.694 132.632 125.026 131.2C126.406 129.721 126.453 126.477 125.121 125.141C124.598 124.616 123.979 124.187 123.741 124.187C123.503 124.187 123.028 124.091 122.647 123.996C122.314 123.853 121.695 123.9 121.315 124.044Z" fill="white" fill-opacity="0.29"/>
<path d="M109.181 125.141C107.849 126.62 107.706 129.912 108.943 131.439C110.228 133.109 111.465 133.109 112.988 131.582C114.415 130.198 114.606 126.954 113.416 125.236C112.512 123.9 110.371 123.853 109.181 125.141Z" fill="white" fill-opacity="0.29"/>
<path d="M131.878 125.284C130.736 126.477 130.451 129.292 131.307 130.866C131.973 132.107 134.685 132.918 136.208 132.346C139.015 131.248 139.777 126.906 137.445 124.998C135.97 123.805 133.115 123.948 131.878 125.284Z" fill="white" fill-opacity="0.29"/>
<path d="M102.377 125.857C101.568 127.622 101.663 131.439 102.519 132.584C103.233 133.491 103.233 133.491 104.185 132.346C104.851 131.582 105.136 130.532 105.136 128.862C105.136 124.998 103.519 123.28 102.377 125.857Z" fill="white" fill-opacity="0.29"/>
<path d="M100.045 128.958C100.045 130.914 100.14 131.725 100.235 130.723C100.33 129.769 100.33 128.147 100.235 127.145C100.14 126.19 100.045 127.002 100.045 128.958Z" fill="white" fill-opacity="0.29"/>
<path d="M115.605 135.495C113.13 136.353 113.083 140.743 115.557 142.651C116.556 143.415 118.555 143.415 119.554 142.651C120.03 142.365 120.506 141.315 120.649 140.361C120.886 138.882 120.744 138.405 119.602 137.164C118.174 135.638 116.794 135.065 115.605 135.495Z" fill="white" fill-opacity="0.29"/>
<path d="M126.739 135.829C124.217 136.926 123.884 139.693 126.025 141.888C128.262 144.083 131.212 143.606 132.164 140.886C132.877 138.93 132.069 136.783 130.308 135.876C128.69 135.017 128.595 135.017 126.739 135.829Z" fill="white" fill-opacity="0.29"/>
<path d="M106.183 136.21C104.803 137.594 106.278 142.794 108.229 143.558C110.561 144.464 111.227 139.598 109.133 137.117C107.801 135.542 107.087 135.304 106.183 136.21Z" fill="white" fill-opacity="0.29"/>
<path d="M101.425 138.262C101.663 140.743 103.043 144.226 103.756 144.226C104.946 144.226 103.423 137.737 101.948 136.496C101.282 135.924 101.187 136.115 101.425 138.262Z" fill="white" fill-opacity="0.29"/>
<path d="M152.205 115.289C154.454 116.637 155.268 120.095 153.613 121.484C152.299 122.594 150.447 122.402 148.82 120.927C147.656 119.942 147.388 119.267 147.425 117.883C147.502 114.926 149.626 113.789 152.205 115.289Z" fill="white" fill-opacity="0.29"/>
<path d="M142.012 115.545C143.495 117.064 143.521 119.689 142.106 121.036C139.762 123.265 135.438 121.194 135.525 117.855C135.613 114.517 139.697 113.05 142.012 115.545Z" fill="white" fill-opacity="0.29"/>
<path d="M161.025 116.572C162.966 118.771 162.997 123.02 161.095 122.97C159.953 122.94 158.019 120.454 157.64 118.583C157.012 115.321 158.945 114.179 161.025 116.572Z" fill="white" fill-opacity="0.29"/>
<path d="M165.374 117.689C165.965 118.755 166.535 120.632 166.647 121.78C166.931 123.649 166.88 123.791 166.182 123.2C165.111 122.264 163.968 118.655 164.201 117.038L164.38 115.659L165.374 117.689Z" fill="white" fill-opacity="0.29"/>
<path d="M146.778 124.357C149.652 125.484 150.542 129.659 148.349 131.606C146.789 132.997 144.175 132.88 142.88 131.414C141.54 129.899 141.577 126.654 142.944 125.354C143.481 124.843 144.111 124.43 144.349 124.436C144.586 124.443 145.065 124.36 145.448 124.275C145.784 124.14 146.402 124.204 146.778 124.357Z" fill="white" fill-opacity="0.29"/>
<path d="M158.879 125.775C160.172 127.289 160.228 130.584 158.952 132.077C157.623 133.712 156.387 133.68 154.905 132.113C153.514 130.692 153.409 127.444 154.643 125.759C155.582 124.447 157.724 124.456 158.879 125.775Z" fill="white" fill-opacity="0.29"/>
<path d="M165.662 126.67C166.425 128.456 166.229 132.269 165.343 133.391C164.606 134.279 164.606 134.279 163.684 133.109C163.039 132.328 162.781 131.271 162.825 129.602C162.926 125.739 164.588 124.064 165.662 126.67Z" fill="white" fill-opacity="0.29"/>
<path d="M167.912 129.832C167.86 131.787 167.744 132.596 167.675 131.592C167.605 130.635 167.647 129.014 167.769 128.015C167.889 127.063 167.963 127.876 167.912 129.832Z" fill="white" fill-opacity="0.29"/>
<path d="M152.186 135.955C154.637 136.879 154.569 141.268 152.045 143.111C151.026 143.848 149.029 143.795 148.05 143.005C147.582 142.707 147.133 141.645 147.016 140.687C146.817 139.202 146.972 138.729 148.146 137.519C149.613 136.03 151.008 135.495 152.186 135.955Z" fill="white" fill-opacity="0.29"/>
<path d="M141.046 135.995C143.538 137.159 143.799 139.934 141.601 142.071C139.308 144.206 136.371 143.651 135.491 140.908C134.829 138.933 135.694 136.808 137.477 135.949C139.117 135.133 139.212 135.135 141.046 135.995Z" fill="white" fill-opacity="0.29"/>
<path d="M161.585 136.92C162.928 138.339 161.317 143.499 159.347 144.211C156.992 145.055 156.454 140.173 158.612 137.748C159.985 136.209 160.705 135.99 161.585 136.92Z" fill="white" fill-opacity="0.29"/>
<path d="M166.288 139.096C165.985 141.57 164.514 145.015 163.801 144.997C162.611 144.965 164.304 138.519 165.811 137.318C166.492 136.763 166.582 136.956 166.288 139.096Z" fill="white" fill-opacity="0.29"/>
<path d="M112.512 145.991C111.275 147.184 112.797 150.428 115.272 151.86C117.698 153.196 118.84 150.619 117.08 147.757C115.89 145.848 113.559 144.942 112.512 145.991Z" fill="white" fill-opacity="0.29"/>
<path d="M120.621 145.068C119.208 146.045 120.187 149.493 122.398 151.308C124.577 153.02 126.119 150.663 124.844 147.552C123.978 145.476 121.824 144.203 120.621 145.068Z" fill="white" fill-opacity="0.29"/>
<path d="M106.326 146.134C105.85 146.898 107.896 150.762 109.324 151.86C110.989 153.196 111.56 152.432 110.609 150.142C109.419 147.279 106.992 145.037 106.326 146.134Z" fill="white" fill-opacity="0.29"/>
<path d="M104.708 148.472C105.279 149.474 106.278 150.953 106.897 151.669L108.087 153.053L107.23 151.621C104.708 147.327 102.567 144.655 104.708 148.472Z" fill="white" fill-opacity="0.29"/>
<path d="M120.22 153.625C119.078 154.722 120.506 157.156 123.075 158.492C124.645 159.303 125.121 159.112 125.121 157.776C125.121 155.963 124.265 154.722 122.504 153.959C120.601 153.196 120.601 153.196 120.22 153.625Z" fill="white" fill-opacity="0.29"/>
<path d="M128.832 153.625C126.929 154.102 127.548 157.49 129.737 158.492C131.354 159.255 132.734 158.396 132.734 156.727C132.734 154.484 130.974 153.053 128.832 153.625Z" fill="white" fill-opacity="0.29"/>
<path d="M113.701 154.388C113.701 155.391 115.034 156.965 116.746 158.015C120.03 160.066 120.363 158.873 117.317 155.868C115.319 153.816 113.701 153.148 113.701 154.388Z" fill="white" fill-opacity="0.29"/>
<path d="M110.371 154.627C110.371 155.2 113.749 158.253 115.224 159.017C116.081 159.494 115.938 159.255 114.653 157.824C112.655 155.725 110.371 154.007 110.371 154.627Z" fill="white" fill-opacity="0.29"/>
<path d="M127.262 160.448C126.834 161.116 129.166 163.311 130.308 163.311C131.164 163.311 131.212 163.168 130.783 162.166C130.498 161.545 129.737 160.782 129.071 160.496C127.691 159.876 127.643 159.876 127.262 160.448Z" fill="white" fill-opacity="0.29"/>
<path d="M133.353 160.305C132.592 160.591 132.544 162.452 133.306 163.215C134.114 164.027 135.59 163.024 135.59 161.689C135.59 160.83 134.59 159.732 134.019 160.019C133.972 160.019 133.639 160.162 133.353 160.305Z" fill="white" fill-opacity="0.29"/>
<path d="M118.936 160.687C118.936 160.973 123.504 163.311 124.027 163.311C124.455 163.311 121.029 161.259 119.792 160.782C119.316 160.639 118.936 160.591 118.936 160.687Z" fill="white" fill-opacity="0.29"/>
<path d="M123.456 161.641C124.265 162.309 125.549 163.024 126.311 163.311C127.738 163.74 127.738 163.74 125.883 162.118C124.836 161.211 123.551 160.448 123.028 160.448C122.123 160.496 122.171 160.591 123.456 161.641Z" fill="white" fill-opacity="0.29"/>
<path d="M139.163 150.074C137.894 151.555 135.814 151.454 135.385 149.875C134.547 146.879 135.905 144.84 138.469 145.312C139.976 145.599 140.378 148.601 139.163 150.074Z" fill="white" fill-opacity="0.29"/>
<path d="M154.948 145.787C156.216 146.947 154.779 150.23 152.343 151.726C149.952 153.125 148.743 150.58 150.428 147.672C151.567 145.733 153.875 144.765 154.948 145.787Z" fill="white" fill-opacity="0.29"/>
<path d="M146.818 145.078C148.257 146.016 147.368 149.49 145.206 151.362C143.072 153.131 141.468 150.815 142.662 147.672C143.473 145.573 145.593 144.244 146.818 145.078Z" fill="white" fill-opacity="0.29"/>
<path d="M161.136 145.767C161.632 146.517 159.687 150.435 158.289 151.569C156.659 152.949 156.068 152.201 156.96 149.886C158.074 146.993 160.441 144.687 161.136 145.767Z" fill="white" fill-opacity="0.29"/>
<path d="M162.815 148.061C162.27 149.078 161.31 150.583 160.71 151.315L159.557 152.729L160.376 151.276C162.784 146.917 164.855 144.189 162.815 148.061Z" fill="white" fill-opacity="0.29"/>
<path d="M147.443 153.621C148.613 154.688 147.25 157.158 144.716 158.561C143.167 159.413 142.687 159.235 142.652 157.9C142.604 156.087 143.428 154.824 145.168 154.015C147.051 153.202 147.051 153.202 147.443 153.621Z" fill="white" fill-opacity="0.29"/>
<path d="M138.833 153.848C140.748 154.275 140.218 157.677 138.057 158.737C136.459 159.542 135.057 158.72 135.014 157.051C134.955 154.809 136.677 153.332 138.833 153.848Z" fill="white" fill-opacity="0.29"/>
<path d="M153.979 154.212C154.006 155.214 152.715 156.823 151.03 157.918C147.802 160.055 147.437 158.871 150.403 155.786C152.347 153.683 153.947 152.972 153.979 154.212Z" fill="white" fill-opacity="0.29"/>
<path d="M157.315 154.363C157.33 154.935 154.033 158.077 152.578 158.879C151.734 159.379 151.871 159.136 153.118 157.672C155.061 155.52 157.299 153.743 157.315 154.363Z" fill="white" fill-opacity="0.29"/>
<path d="M140.581 160.627C141.027 161.283 138.753 163.539 137.612 163.569C136.756 163.592 136.705 163.45 137.106 162.437C137.376 161.809 138.117 161.026 138.775 160.722C140.138 160.066 140.186 160.065 140.581 160.627Z" fill="white" fill-opacity="0.29"/>
<path d="M148.912 160.646C148.919 160.932 144.414 163.39 143.891 163.404C143.463 163.415 146.834 161.274 148.058 160.764C148.53 160.609 148.909 160.551 148.912 160.646Z" fill="white" fill-opacity="0.29"/>
<path d="M144.418 161.719C143.627 162.408 142.361 163.157 141.608 163.464C140.192 163.931 140.192 163.931 142.005 162.26C143.027 161.326 144.292 160.529 144.815 160.516C145.72 160.539 145.675 160.636 144.418 161.719Z" fill="white" fill-opacity="0.29"/>
<path d="M138.016 161.688C136.875 163.168 136.779 163.788 137.683 163.788C138.635 163.788 140.824 161.927 140.824 161.116C140.824 160.019 139.063 160.353 138.016 161.688Z" fill="white" fill-opacity="0.29"/>
<path d="M143.869 161.211C142.346 162.022 140.728 163.358 141.014 163.645C141.299 163.931 143.726 162.881 144.963 161.927C146.438 160.734 145.677 160.257 143.869 161.211Z" fill="white" fill-opacity="0.29"/>
</g>
<path d="M74 121.5V132H81.5C89 132 89 132 89 130.25C89 128.64 88.7857 128.57 83.4998 128.36L77.9284 128.15V125.7V123.25L82.0711 123.04C85.857 122.83 86.1425 122.69 86.1425 121.15C86.1425 119.47 85.9282 119.4 81.8568 119.4H77.5711V116.95V114.5H83.2855C88.9282 114.5 89 114.5 89 112.75V111H81.5H74V121.5Z" fill="white"/>
<path d="M94 121.5V132H99.661C107.939 132 108 131.93 108 121.57C108 111 108 111 99.9043 111H94V121.5ZM104.226 115.34C104.652 115.83 104.957 118.28 104.957 121.5C104.957 124.72 104.652 127.17 104.226 127.66C103.8 128.15 102.156 128.5 100.574 128.5H97.6523V121.5V114.5H100.574C102.156 114.5 103.8 114.85 104.226 115.34Z" fill="white"/>
<path d="M113 120.8C113 132.279 112.792 131.999 121 131.999C129.208 131.999 129 132.279 129 120.8V111H126.913H124.895L124.687 119.54L124.478 128.15H121H117.522L117.313 119.54L117.105 111H115.087H113V120.8Z" fill="white"/>
<path d="M134 121.5V132H135.739C137.409 132 137.478 131.79 137.478 127.8V123.6H141.652H145.826V127.8V132H147.913H150V121.5V111H147.913H145.826V115.2V119.4H141.652H137.478V115.2C137.478 111.21 137.409 111 135.739 111H134V121.5Z" fill="white"/>
<path d="M158 120.1C158 131.79 158.133 132 166.267 132C173.867 132 174 131.79 174 119.96V111H172H170.067L169.867 119.54L169.667 128.15H166H162.333L162.133 119.54L161.933 111H160H158V120.1Z" fill="white"/>
<path d="M178 121.5V132H185.096C194.335 132 195 131.65 195 126.54C195 124.3 194.631 122.13 194.187 121.71C193.596 121.15 193.596 120.8 194.187 120.52C194.631 120.24 195 118.21 195 115.9C195 112.89 194.705 111.77 193.818 111.42C193.152 111.21 189.383 111 185.318 111H178V121.5ZM190.935 116.95C190.935 119.05 190.861 119.05 186.722 119.26L182.435 119.47V116.95V114.43L186.722 114.64C190.861 114.85 190.935 114.85 190.935 116.95ZM190.935 125.7V128.15L186.722 128.36L182.435 128.57V125.7V122.83L186.722 123.04L190.935 123.25V125.7Z" fill="white"/>
<path d="M86.7359 136.563C83.8574 137.711 83.026 142.62 85.3288 144.916C86.7359 146.318 90.3819 146.382 90.8938 144.979C91.0857 144.405 90.7019 144.278 89.5505 144.533C87.5677 145.043 85.9045 143.449 85.9045 141.09C85.9045 138.858 86.9921 137.838 89.2305 137.838C91.1495 137.838 91.6614 136.946 89.9981 136.308C88.7829 135.862 88.5272 135.862 86.7359 136.563Z" fill="white"/>
<path d="M96.0914 136.615C95.1912 137.132 94.516 138.294 94.1783 139.843C93.4465 143.071 95.0224 145.718 97.8923 145.976C100.425 146.235 102 144.362 102 140.876C102 137.002 99.074 134.872 96.0914 136.615ZM100.143 139.391C100.706 140.747 100.649 141.393 99.9742 142.748C98.9052 144.943 97.217 144.943 96.1476 142.748C94.9659 140.424 96.0353 137.713 98.0611 137.713C99.074 137.713 99.6927 138.229 100.143 139.391Z" fill="white"/>
<path d="M107 141C107 145 107.176 146 107.882 146C108.588 146 108.765 145.134 108.823 142.134L108.882 138.334L110.059 142.134C110.706 144.267 111.529 146 111.941 146C112.353 146 113.235 144.134 113.883 141.8L115.118 137.667L115.177 141.8C115.235 145.067 115.412 146 116.118 146C116.824 146 117 145 117 141C117 136.2 116.941 136 115.647 136C114.529 136 114.118 136.6 113.235 139.667C112.706 141.667 112.118 143.334 112 143.334C111.882 143.334 111.294 141.667 110.765 139.667C109.882 136.6 109.471 136 108.353 136C107.059 136 107 136.2 107 141Z" fill="white"/>
<path d="M121 141C121 145 121.212 146 122.059 146C122.906 146 123.118 145.134 123.188 142.134L123.259 138.334L124.671 142.134C125.447 144.267 126.435 146 126.93 146C127.424 146 128.482 144.134 129.259 141.8L130.741 137.667L130.812 141.8C130.882 145.067 131.094 146 131.941 146C132.788 146 133 145 133 141C133 136.2 132.93 136 131.377 136C130.035 136 129.541 136.6 128.482 139.667C127.847 141.667 127.141 143.334 127 143.334C126.859 143.334 126.153 141.667 125.518 139.667C124.459 136.6 123.965 136 122.623 136C121.07 136 121 136.2 121 141Z" fill="white"/>
<path d="M135 139.667C135 143.8 136.523 146 139.5 146C142.477 146 144 143.8 144 139.667C144 136.867 143.792 136 142.962 136C142.2 136 141.923 136.867 141.923 139.6C141.923 143.6 140.608 145.467 138.6 144.2C137.769 143.734 137.354 142.4 137.215 139.734C137.077 137 136.731 136 136.038 136C135.277 136 135 136.933 135 139.667Z" fill="white"/>
<path d="M147 141C147 144.934 147.171 146 147.857 146C148.429 146 148.714 145 148.829 142.267L149 138.534L150.714 142.134C151.914 144.467 152.886 145.734 153.743 145.867C154.943 146.067 155 145.867 155 141.067C155 137 154.829 136 154.143 136C153.457 136 153.286 136.867 153.286 139.8L153.229 143.667L151.4 139.867C150.029 136.934 149.229 136 148.314 136C147.057 136 147 136.267 147 141Z" fill="white"/>
<path d="M159 141C159 145 159.1 146 159.5 146C159.9 146 160 145 160 141C160 137 159.9 136 159.5 136C159.1 136 159 137 159 141Z" fill="white"/>
<path d="M163 136.667C163 137 163.525 137.334 164.167 137.334C165.217 137.334 165.334 137.8 165.334 141.667C165.334 145.067 165.509 146 166.209 146C166.909 146 167.084 145.067 167.084 141.667C167.084 137.467 167.142 137.334 168.542 137.334C169.359 137.334 170 137 170 136.667C170 136.267 168.425 136 166.5 136C164.575 136 163 136.267 163 136.667Z" fill="white"/>
<path d="M174.284 138.934C175.273 140.6 176.122 142.8 176.122 143.934C176.122 145.334 176.475 146 177.182 146C177.89 146 178.243 145.333 178.243 144C178.243 142.867 178.879 140.8 179.657 139.334C181.354 136.267 181.354 136 180.152 136C179.657 136 178.738 137 178.102 138.134L177.041 140.334L175.839 138.134C175.203 137 174.142 136 173.576 136C172.657 136 172.799 136.534 174.284 138.934Z" fill="white"/>
<defs>
<filter id="filter0_d_142_2" x="0" y="0" width="268" height="268" filterUnits="userSpaceOnUse" color-interpolation-filters="sRGB">
<feFlood flood-opacity="0" result="BackgroundImageFix"/>
<feColorMatrix in="SourceAlpha" type="matrix" values="0 0 0 0 0 0 0 0 0 0 0 0 0 0 0 0 0 0 127 0" result="hardAlpha"/>
<feOffset dy="4"/>
<feGaussianBlur stdDeviation="50"/>
<feComposite in2="hardAlpha" operator="out"/>
<feColorMatrix type="matrix" values="0 0 0 0 0 0 0 0 0 0 0 0 0 0 0 0 0 0 0.25 0"/>
<feBlend mode="normal" in2="BackgroundImageFix" result="effect1_dropShadow_142_2"/>
<feBlend mode="normal" in="SourceGraphic" in2="effect1_dropShadow_142_2" result="shape"/>
</filter>
<clipPath id="clip0_142_2">
<rect width="68" height="68" fill="white" transform="translate(100 96)"/>
</clipPath>
</defs>
</svg>
