<svg width="20" height="491" viewBox="0 0 20 491" fill="none" xmlns="http://www.w3.org/2000/svg">
<path d="M20 10C20 15.5228 15.5228 20 10 20C4.47715 20 0 15.5228 0 10C0 4.47715 4.47715 0 10 0C15.5228 0 20 4.47715 20 10Z" fill="#D9D9D9"/>
<path d="M20 333C20 338.523 15.5228 343 10 343C4.47715 343 0 338.523 0 333C0 327.477 4.47715 323 10 323C15.5228 323 20 327.477 20 333Z" fill="#D9D9D9"/>
<path d="M20 481C20 486.523 15.5228 491 10 491C4.47715 491 0 486.523 0 481C0 475.477 4.47715 471 10 471C15.5228 471 20 475.477 20 481Z" fill="#D9D9D9"/>
<line x1="10.5" y1="10" x2="10.5" y2="251" stroke="#D9D9D9" stroke-width="5"/>
<path d="M20 177C20 182.523 15.5228 187 10 187C4.47715 187 0 182.523 0 177C0 171.477 4.47715 167 10 167C15.5228 167 20 171.477 20 177Z" fill="#D9D9D9"/>
<line x1="10.5" y1="177" x2="10.5" y2="418" stroke="#D9D9D9" stroke-width="5"/>
<line x1="10.5" y1="240" x2="10.5" y2="481" stroke="#D9D9D9" stroke-width="5"/>
</svg>
