<svg width="147" height="135" viewBox="0 0 147 135" fill="none" xmlns="http://www.w3.org/2000/svg">
<path d="M67.6385 106.485C66.9578 106.432 66.3201 106.085 65.8544 105.515C65.3886 104.945 65.1296 104.194 65.1296 103.413C65.1296 102.633 65.3886 101.882 65.8544 101.312C66.3201 100.741 66.9578 100.395 67.6385 100.341H89.3284C89.6966 100.313 90.066 100.371 90.4137 100.512C90.7614 100.653 91.08 100.875 91.3497 101.163C91.6194 101.451 91.8345 101.8 91.9815 102.187C92.1285 102.574 92.2044 102.991 92.2044 103.413C92.2044 103.835 92.1285 104.253 91.9815 104.64C91.8345 105.027 91.6194 105.376 91.3497 105.664C91.08 105.952 90.7614 106.173 90.4137 106.315C90.066 106.456 89.6966 106.514 89.3284 106.485H67.6385ZM78.4834 52.5927C80.6627 52.5916 82.8207 53.0818 84.8342 54.0353C86.8476 54.9888 88.6769 56.3869 90.2175 58.1496C91.7594 59.9083 92.9827 61.9977 93.8173 64.2979C94.652 66.5982 95.0816 69.0642 95.0816 71.5547C95.0816 74.0452 94.652 76.5112 93.8173 78.8114C92.9827 81.1117 91.7594 83.2011 90.2175 84.9598C88.6797 86.7231 86.8527 88.1221 84.8413 89.0767C82.8299 90.0312 80.6737 90.5225 78.496 90.5225C76.3183 90.5225 74.162 90.0312 72.1506 89.0767C70.1392 88.1221 68.3123 86.7231 66.7744 84.9598C63.6666 81.404 61.9207 76.5822 61.9207 71.5547C61.9207 66.5271 63.6666 61.7054 66.7744 58.1496C68.3122 56.3916 70.1378 54.9973 72.1469 54.0463C74.1559 53.0953 76.3091 52.6063 78.4834 52.607V52.5927ZM97.3557 5.9182H59.6112C61.6901 32.0983 95.4271 31.7689 97.3557 5.9182ZM20.3265 47.2937L38.798 48.2103C39.4407 48.2267 40.0546 48.5184 40.5184 49.0275C40.9821 49.5367 41.262 50.2263 41.3026 50.96C41.3087 51.0171 41.3087 51.0748 41.3026 51.1319V61.4722H36.1681V53.9533L18.3103 53.0224C17.744 53.03 17.1922 52.818 16.7449 52.4209C16.7449 52.4209 16.7449 52.4209 16.6823 52.4209C16.2529 52.0198 15.9459 51.4732 15.8057 50.8598L10.0576 24.4792C10.0592 24.4458 10.0592 24.4123 10.0576 24.3789C9.93264 23.7241 10.0124 23.0399 10.283 22.4455C10.5492 21.7968 11.0184 21.2858 11.5979 21.0133L55.5037 0.34705C55.9632 0.0942897 56.4731 -0.0144391 56.9814 0.0319718H99.9855C100.648 -0.0506961 101.318 0.0273879 101.952 0.261119L145.394 20.5407H145.457C145.998 20.8146 146.441 21.2922 146.712 21.8941C146.983 22.496 147.066 23.1858 146.947 23.849L141.85 51.0173C141.85 51.0173 141.85 51.0173 141.85 51.1319C141.716 51.7367 141.412 52.2748 140.986 52.6643C140.533 53.0893 139.968 53.3265 139.383 53.3374L121.55 53.5523V132.05C121.544 132.83 121.27 133.576 120.786 134.126C120.551 134.405 120.269 134.626 119.957 134.776C119.644 134.926 119.309 135.002 118.97 135H61.1265L60.6381 129.099H116.366V50.645C116.365 49.8785 116.627 49.1424 117.095 48.5938C117.563 48.0453 118.2 47.7277 118.87 47.709C124.969 47.709 131.093 47.5515 137.191 47.4799L141.412 25.052L102.44 6.82047C99.5597 39.2305 57.7829 39.474 54.5519 7.19284L15.5677 25.5103L20.3265 47.2937ZM36.3685 133.224C36.2059 132.84 36.1244 132.419 36.1306 131.992V130.36L36.3685 133.224Z" fill="white"/>
<path d="M22.9894 77.866H33.2052C32.6677 79.013 32.3857 80.2902 32.3834 81.5875C32.3852 82.0413 32.419 82.4942 32.4845 82.942H23.6342C23.7061 82.4952 23.7399 82.0416 23.7353 81.5875C23.7437 80.2904 23.4656 79.0115 22.9261 77.866H22.9894ZM17.6159 76.8393V74.7861C17.6226 71.6673 18.7233 68.6781 20.6776 66.4715C22.632 64.2648 25.2812 63.0198 28.0467 63.0086C30.8188 63.0085 33.4777 64.2485 35.4403 66.4564C37.4028 68.6643 38.5087 71.6599 38.5154 74.7861V76.9106C37.8309 77.168 37.2446 77.6808 36.8532 78.3644C36.4618 79.048 36.2887 79.8616 36.3623 80.671C36.4359 81.4805 36.752 82.2375 37.2583 82.8172C37.7646 83.3969 38.431 83.7648 39.1476 83.86C39.8641 83.9553 40.5881 83.7724 41.2001 83.3414C41.8121 82.9104 42.2756 82.2571 42.5142 81.4892C42.7528 80.7212 42.7522 79.8845 42.5125 79.117C42.2728 78.3495 41.8084 77.697 41.1958 77.2671V74.7861C41.1858 70.8656 39.7995 67.1091 37.3401 64.3382C34.8807 61.5673 31.5484 60.0075 28.072 60C24.5957 60.0038 21.2628 61.5628 18.8047 64.3349C16.3466 67.107 14.9642 70.8658 14.9608 74.7861V77.4525C14.3778 77.9426 13.9603 78.6422 13.7771 79.4358C13.5939 80.2294 13.656 81.0698 13.953 81.8183C14.2501 82.5668 14.7645 83.1789 15.4113 83.5535C16.0582 83.9282 16.7989 84.0431 17.5115 83.8794C18.224 83.7156 18.8658 83.2829 19.3311 82.6527C19.7963 82.0224 20.0573 81.2322 20.0709 80.4123C20.0846 79.5923 19.8501 78.7916 19.4061 78.1421C18.9621 77.4926 18.3352 77.0331 17.6286 76.8393H17.6159ZM6.67941 77.866H10.6747C10.127 79.0091 9.84022 80.2881 9.84025 81.5875C9.84206 82.0413 9.87588 82.4942 9.9414 82.942H7.98168L4.6059 129.995H52.4231L49.0347 82.942H46.2405C46.306 82.4942 46.3398 82.0413 46.3416 81.5875C46.3456 80.2893 46.0631 79.0104 45.5198 77.866H50.3369C50.7367 77.8667 51.1323 77.9566 51.5012 78.1303C51.8701 78.304 52.2048 78.5582 52.4863 78.8783C53.0323 79.4979 53.3642 80.3171 53.4219 81.1882L57 131.336C57 131.45 57 131.535 57 131.578C56.9995 132.028 56.9187 132.473 56.7623 132.887C56.6059 133.301 56.3771 133.675 56.0897 133.988C55.5592 134.578 54.8603 134.936 54.1173 135H2.8864C2.1426 134.94 1.44263 134.581 0.91404 133.988C0.626596 133.675 0.397849 133.301 0.241448 132.887C0.0850462 132.473 0.00419492 132.028 0.00371779 131.578C-0.00123926 131.497 -0.00123926 131.416 0.00371779 131.336L3.59443 81.174C3.64381 80.3046 3.97715 79.4867 4.53004 78.8783C5.10012 78.2345 5.87262 77.8706 6.67941 77.866ZM22.3698 121.654C21.9674 121.654 21.5815 121.474 21.297 121.153C21.0125 120.832 20.8526 120.397 20.8526 119.943C20.8526 119.489 21.0125 119.054 21.297 118.733C21.5815 118.412 21.9674 118.232 22.3698 118.232H34.6465C35.0489 118.232 35.4348 118.412 35.7194 118.733C36.0039 119.054 36.1637 119.489 36.1637 119.943C36.1637 120.397 36.0039 120.832 35.7194 121.153C35.4348 121.474 35.0489 121.654 34.6465 121.654H22.3698ZM28.5019 91.597C29.7379 91.6024 30.9607 91.8837 32.1 92.4245C33.2392 92.9653 34.2722 93.755 35.1396 94.7481C36.0139 95.731 36.7076 96.8988 37.1809 98.1845C37.6542 99.4703 37.8978 100.849 37.8978 102.241C37.8978 103.633 37.6542 105.012 37.1809 106.297C36.7076 107.583 36.0139 108.751 35.1396 109.734L34.9753 109.919C33.8638 111.113 32.51 111.982 31.0321 112.449C29.5541 112.916 27.9972 112.968 26.4975 112.6C24.9977 112.231 23.6008 111.454 22.429 110.336C21.2572 109.218 20.3461 107.794 19.7755 106.187C19.2048 104.58 18.992 102.84 19.1557 101.118C19.3194 99.3973 19.8545 97.7477 20.7143 96.3137C21.5741 94.8798 22.7323 93.7053 24.0877 92.893C25.4431 92.0807 26.9543 91.6553 28.4892 91.654L28.5019 91.597Z" fill="white"/>
<path fill-rule="evenodd" clip-rule="evenodd" d="M28.5 94C29.7856 94 31.0423 94.4692 32.1112 95.3482C33.1801 96.2273 34.0132 97.4767 34.5052 98.9385C34.9972 100.4 35.1259 102.009 34.8751 103.561C34.6243 105.113 34.0052 106.538 33.0962 107.657C32.1872 108.776 31.029 109.538 29.7681 109.846C28.5072 110.155 27.2003 109.997 26.0126 109.391C24.8248 108.786 23.8097 107.76 23.0954 106.445C22.3812 105.129 22 103.582 22 102C22 99.8783 22.6848 97.8434 23.9038 96.3431C25.1228 94.8429 26.7761 94 28.5 94Z" fill="white"/>
</svg>
