<svg width="111" height="104" viewBox="0 0 111 104" fill="none" xmlns="http://www.w3.org/2000/svg">
<path d="M24.8462 103.987H1.83348V34.5601H24.8462V103.987ZM13.3274 25.0897C5.96873 25.0897 0 19.3796 0 12.4857C5.26705e-08 9.17426 1.40414 5.99848 3.90351 3.65697C6.40289 1.31545 9.79278 0 13.3274 0C16.8621 0 20.252 1.31545 22.7514 3.65697C25.2507 5.99848 26.6549 9.17426 26.6549 12.4857C26.6549 19.3796 20.6837 25.0897 13.3274 25.0897ZM110.975 103.987H88.0121V70.1904C88.0121 62.1358 87.8387 51.8066 76.0474 51.8066C64.0827 51.8066 62.2492 60.5574 62.2492 69.6101V103.987H39.2613V34.5601H61.3325V44.0306H61.6546C64.7269 38.5758 72.2318 32.8193 83.4284 32.8193C106.719 32.8193 111 47.1874 111 65.8497V103.987H110.975Z" fill="#F0F2F4"/>
</svg>
