<svg width="98" height="75" viewBox="0 0 98 75" fill="none" xmlns="http://www.w3.org/2000/svg">
<path d="M87.9266 18.5834C87.9888 19.3989 87.9888 20.2146 87.9888 21.0302C87.9888 45.9051 67.7795 74.5669 30.8428 74.5669C19.4632 74.5669 8.8922 71.4792 0 66.1199C1.61681 66.2946 3.17123 66.3529 4.85025 66.3529C14.2397 66.3529 22.8833 63.382 29.7856 58.3137C20.9556 58.1389 13.5558 52.7212 11.0063 45.2644C12.25 45.4391 13.4936 45.5556 14.7996 45.5556C16.6028 45.5556 18.4063 45.3225 20.0851 44.9149C10.8821 43.1671 3.97954 35.594 3.97954 26.4479V26.215C6.65331 27.6131 9.76271 28.4869 13.0582 28.6033C7.64824 25.2244 4.10396 19.4572 4.10396 12.9326C4.10396 9.43731 5.0987 6.23326 6.83993 3.43698C16.7271 14.855 31.5889 22.3116 48.2537 23.1273C47.9429 21.7292 47.7562 20.2729 47.7562 18.8165C47.7562 8.44693 56.7106 0 67.8413 0C73.6243 0 78.8476 2.27195 82.5165 5.94205C87.0557 5.12651 91.4085 3.55354 95.264 1.39814C93.7714 5.76739 90.6002 9.43748 86.434 11.7675C90.476 11.3599 94.3935 10.3111 98 8.85488C95.2644 12.5831 91.8442 15.9035 87.9266 18.5834Z" fill="#EFF5FC"/>
</svg>
