<svg width="129" height="85" viewBox="0 0 129 85" fill="none" xmlns="http://www.w3.org/2000/svg">
<path d="M125.508 13.2117C124.034 8.01129 119.69 3.9156 114.175 2.52567C104.178 0 64.0932 0 64.0932 0C64.0932 0 24.0084 0 14.0116 2.52567C8.49648 3.91582 4.15283 8.01129 2.67858 13.2117C0 22.6378 0 42.3044 0 42.3044C0 42.3044 0 61.971 2.67858 71.3971C4.15283 76.5975 8.49648 80.5226 14.0116 81.9125C24.0084 84.4382 64.0932 84.4382 64.0932 84.4382C64.0932 84.4382 104.178 84.4382 114.175 81.9125C119.69 80.5226 124.034 76.5975 125.508 71.3971C128.186 61.971 128.186 42.3044 128.186 42.3044C128.186 42.3044 128.186 22.6378 125.508 13.2117ZM50.9831 60.1602V24.4486L84.4862 42.3048L50.9831 60.1602Z" fill="white"/>
</svg>
